<svg xmlns="http://www.w3.org/2000/svg" xmlns:xlink="http://www.w3.org/1999/xlink" width="500" zoomAndPan="magnify" viewBox="0 0 375 374.999991" height="500" preserveAspectRatio="xMidYMid meet" version="1.0"><path fill="#ffc107" d="M 192.121094 144.804688 C 195.980469 142.546875 197.515625 137.726562 195.585938 133.628906 C 191.632812 125.308594 179.082031 128.117188 179.082031 137.332031 C 179.082031 144.027344 186.355469 148.191406 192.121094 144.804688 " fill-opacity="1" fill-rule="nonzero"/><path fill="#ffc107" d="M 207.675781 169.578125 L 204.894531 161.753906 C 202.148438 154.007812 201.558594 149.371094 196.414062 149.371094 L 193.90625 149.371094 L 193.90625 147.285156 C 190.386719 150.382812 185.136719 150.410156 181.589844 147.285156 L 181.589844 149.371094 C 173.476562 149.371094 174.84375 149.792969 167.832031 169.578125 C 166.441406 173.488281 172.242188 175.707031 173.816406 171.886719 L 178.359375 160.925781 C 178.359375 190.582031 178.359375 147.402344 178.359375 200.5625 C 178.359375 204.710938 184.542969 204.90625 184.832031 200.785156 L 186.539062 175.867188 L 188.957031 175.867188 L 190.675781 200.785156 C 190.949219 204.90625 197.136719 204.710938 197.136719 200.5625 C 197.136719 147.769531 197.136719 180.800781 197.136719 160.925781 L 201.675781 171.886719 C 203.253906 175.707031 209.054688 173.488281 207.675781 169.578125 " fill-opacity="1" fill-rule="nonzero"/><path fill="#ffc107" d="M 225.414062 106.757812 C 232.714844 106.757812 238.621094 100.835938 238.621094 93.535156 C 238.621094 86.234375 232.714844 80.3125 225.414062 80.3125 C 218.113281 80.3125 212.195312 86.234375 212.195312 93.535156 C 212.195312 100.835938 218.113281 106.757812 225.414062 106.757812 " fill-opacity="1" fill-rule="nonzero"/><path fill="#ffc107" d="M 258.683594 144.765625 L 251.160156 120.4375 C 249.597656 115.433594 244.976562 112.019531 239.726562 112.019531 L 211.089844 112.019531 C 205.851562 112.019531 201.21875 115.433594 199.65625 120.4375 L 195.980469 132.355469 C 198.933594 137.214844 197.054688 143.515625 191.921875 145.996094 C 191.910156 146.484375 191.960938 146.96875 192.082031 147.429688 C 193 146.863281 194.011719 145.894531 194.863281 145.144531 C 194.863281 145.5 194.863281 148.046875 194.863281 148.414062 C 196.792969 148.414062 198.25 148.308594 200.101562 149.503906 C 200.980469 148.609375 210.183594 129.664062 210.734375 128.535156 L 205.234375 159.824219 L 208.582031 169.261719 C 209.855469 172.847656 206.050781 176.128906 202.6875 174.34375 L 202.28125 176.628906 L 211.089844 176.628906 L 211.089844 197.976562 C 211.089844 205.589844 222.054688 205.640625 222.277344 198.382812 L 222.984375 176.628906 L 227.84375 176.628906 L 228.539062 198.382812 C 228.773438 205.667969 239.726562 205.484375 239.726562 198.199219 L 239.726562 176.628906 L 248.535156 176.628906 L 240.078125 128.535156 L 249.847656 148.296875 C 250.964844 150.527344 253.613281 151.539062 255.925781 150.59375 C 258.222656 149.648438 259.417969 147.128906 258.683594 144.765625 " fill-opacity="1" fill-rule="nonzero"/><path fill="#ffc107" d="M 150.082031 106.492188 C 157.316406 106.492188 163.171875 100.625 163.171875 93.402344 C 163.171875 86.183594 157.316406 80.3125 150.082031 80.3125 C 142.859375 80.3125 137.003906 86.183594 137.003906 93.402344 C 137.003906 100.625 142.859375 106.492188 150.082031 106.492188 " fill-opacity="1" fill-rule="nonzero"/><path fill="#ffc107" d="M 173.976562 150.75 C 175.683594 148.78125 177.625 148.414062 179.910156 148.414062 C 180.132812 147.046875 180.226562 148.203125 171.992188 119.175781 C 170.707031 114.632812 166.558594 111.496094 161.832031 111.496094 L 138.34375 111.496094 C 133.617188 111.496094 129.46875 114.632812 128.183594 119.175781 L 120.371094 146.746094 C 119.019531 151.300781 125.792969 153.691406 127.527344 148.953125 L 135.914062 126.070312 C 135.914062 128.773438 135.914062 197.476562 135.914062 198.722656 C 135.914062 201.335938 137.882812 203.621094 140.484375 203.789062 C 143.1875 203.960938 145.484375 201.902344 145.65625 199.234375 L 148.085938 161.632812 L 152.089844 161.632812 L 154.503906 199.066406 C 154.925781 205.5625 164.261719 205.128906 164.261719 198.921875 C 164.261719 192.121094 164.261719 132.988281 164.261719 126.070312 C 172.914062 149.675781 172.480469 149.609375 173.976562 150.75 " fill-opacity="1" fill-rule="nonzero"/><path fill="#dc3545" d="M 145.550781 273.28125 L 179.871094 273.28125 L 179.871094 252.800781 C 179.871094 233.410156 164.140625 217.679688 144.75 217.679688 C 136.230469 217.679688 133.867188 213.664062 117.507812 197.738281 C 114.75 195.058594 112.019531 194.757812 108.726562 196.109375 C 106.046875 197.199219 107.597656 199.039062 122.667969 219.507812 C 121.394531 220.398438 119.648438 220.109375 118.730469 218.851562 L 104.023438 198.617188 C 102.988281 197.199219 103.421875 195.179688 104.96875 194.3125 C 108.566406 192.304688 107.820312 193.433594 106.835938 172.832031 C 106.375 163.277344 98.105469 160.648438 97.945312 162.066406 C 94.980469 189.402344 93.390625 194.746094 96.34375 202.804688 C 98.378906 208.386719 102.976562 215.410156 105.902344 223.445312 C 110.183594 235.183594 117.796875 238.320312 134.367188 248.808594 C 141.324219 253.222656 145.550781 260.886719 145.550781 269.132812 L 145.550781 273.28125 " fill-opacity="1" fill-rule="nonzero"/><path fill="#dc3545" d="M 173.753906 283.523438 C 173.753906 278.757812 180.960938 278.757812 180.960938 283.523438 C 180.960938 288.289062 173.753906 288.289062 173.753906 283.523438 Z M 182.691406 277.863281 L 141.257812 277.863281 C 139.722656 277.863281 138.460938 279.109375 138.460938 280.660156 L 138.460938 291.542969 C 138.460938 293.082031 139.722656 294.339844 141.257812 294.339844 L 182.691406 294.339844 C 184.242188 294.339844 185.488281 293.082031 185.488281 291.542969 L 185.488281 280.660156 C 185.488281 279.109375 184.242188 277.863281 182.691406 277.863281 " fill-opacity="1" fill-rule="nonzero"/><path fill="#dc3545" d="M 277.050781 162.066406 C 276.890625 160.648438 268.621094 163.277344 268.160156 172.832031 C 267.175781 193.417969 266.429688 192.304688 270.027344 194.3125 C 271.574219 195.179688 272.007812 197.199219 270.972656 198.617188 L 256.265625 218.851562 C 255.347656 220.109375 253.601562 220.398438 252.328125 219.507812 C 261.820312 206.613281 265.679688 201.058594 267.125 198.644531 C 267.648438 197.75 267.335938 196.542969 266.269531 196.109375 C 262.976562 194.757812 260.246094 195.058594 257.488281 197.738281 C 241.800781 213.007812 238.949219 217.679688 230.246094 217.679688 C 210.855469 217.679688 195.125 233.410156 195.125 252.800781 L 195.125 273.28125 L 229.445312 273.28125 L 229.445312 269.132812 C 229.445312 243.503906 260.71875 246.445312 269.09375 223.445312 C 272.023438 215.410156 276.617188 208.386719 278.652344 202.804688 C 281.605469 194.746094 280.015625 189.402344 277.050781 162.066406 " fill-opacity="1" fill-rule="nonzero"/><path fill="#dc3545" d="M 194.035156 283.523438 C 194.035156 278.757812 201.246094 278.757812 201.246094 283.523438 C 201.246094 288.289062 194.035156 288.289062 194.035156 283.523438 Z M 233.738281 277.863281 L 192.304688 277.863281 C 190.753906 277.863281 189.507812 279.109375 189.507812 280.660156 L 189.507812 291.542969 C 189.507812 293.082031 190.753906 294.339844 192.304688 294.339844 L 233.738281 294.339844 C 235.273438 294.339844 236.535156 293.082031 236.535156 291.542969 L 236.535156 280.660156 C 236.535156 279.109375 235.273438 277.863281 233.738281 277.863281 " fill-opacity="1" fill-rule="nonzero"/></svg>